<mxfile host="app.diagrams.net" modified="2022-04-25T15:32:18.263Z" agent="5.0 (Windows NT 10.0; Win64; x64) AppleWebKit/537.36 (KHTML, like Gecko) Chrome/100.0.4896.127 Safari/537.36" etag="5Y-HUiVe-AM5L8iwmH3f" version="17.4.6" type="github">
  <diagram id="aLXQZRFcxxDvqfMtw7sF" name="Page-1">
    <mxGraphModel dx="1412" dy="1478" grid="1" gridSize="10" guides="1" tooltips="1" connect="1" arrows="1" fold="1" page="1" pageScale="1" pageWidth="850" pageHeight="1100" math="1" shadow="0">
      <root>
        <mxCell id="0" />
        <mxCell id="1" parent="0" />
        <mxCell id="GpSwhTtLLLZpUkMEff_--1" value="&lt;font style=&quot;font-size: 50px&quot;&gt;&lt;font color=&quot;#0000c4&quot;&gt;the&lt;/font&gt;&amp;nbsp;&lt;font color=&quot;#ff0000&quot;&gt;PALMER &lt;/font&gt;&lt;br&gt;&lt;font color=&quot;#ff0000&quot;&gt;CATASTROPHE&lt;/font&gt;&lt;br&gt;&lt;font color=&quot;#0000c4&quot;&gt;&amp;amp; the FAMILY&lt;br&gt;of PRECEDENT !&lt;br&gt;PATHs&lt;/font&gt;&lt;br&gt;&lt;/font&gt;" style="text;html=1;align=center;verticalAlign=middle;resizable=0;points=[];autosize=1;strokeColor=none;fillColor=none;" vertex="1" parent="1">
          <mxGeometry x="140" y="288" width="410" height="140" as="geometry" />
        </mxCell>
        <mxCell id="GpSwhTtLLLZpUkMEff_--3" value="&lt;div style=&quot;text-align: left&quot;&gt;&lt;span&gt;BITI&lt;/span&gt;&lt;/div&gt;&lt;div style=&quot;text-align: left&quot;&gt;&lt;span&gt;TRITI&lt;/span&gt;&lt;/div&gt;&lt;div style=&quot;text-align: left&quot;&gt;&lt;span&gt;N-ITI&lt;/span&gt;&lt;/div&gt;" style="text;html=1;align=center;verticalAlign=middle;resizable=0;points=[];autosize=1;strokeColor=none;fillColor=none;fontSize=40;fontColor=#0000C4;" vertex="1" parent="1">
          <mxGeometry x="260" y="620" width="120" height="150" as="geometry" />
        </mxCell>
        <mxCell id="GpSwhTtLLLZpUkMEff_--4" value="" style="shape=curlyBracket;whiteSpace=wrap;html=1;rounded=1;fontSize=40;fontColor=#0000C4;strokeColor=#0000C4;" vertex="1" parent="1">
          <mxGeometry x="250" y="620" width="20" height="150" as="geometry" />
        </mxCell>
        <mxCell id="GpSwhTtLLLZpUkMEff_--6" value="POLICY-VALUE&lt;br&gt;PARADIGM-VALOR" style="text;html=1;align=center;verticalAlign=middle;resizable=0;points=[];autosize=1;strokeColor=none;fillColor=none;fontSize=30;fontColor=#0000C4;" vertex="1" parent="1">
          <mxGeometry x="635" y="208" width="280" height="80" as="geometry" />
        </mxCell>
        <mxCell id="GpSwhTtLLLZpUkMEff_--7" value="$$(\mathbb{Q};\mathbb{K};\mathbb{!}$$" style="text;html=1;align=center;verticalAlign=middle;resizable=0;points=[];autosize=1;strokeColor=none;fillColor=none;fontSize=30;fontColor=#0000C4;" vertex="1" parent="1">
          <mxGeometry x="415" y="290" width="550" height="40" as="geometry" />
        </mxCell>
        <mxCell id="GpSwhTtLLLZpUkMEff_--8" value="$$\oplus ; \odot ; \dots $$" style="text;html=1;align=center;verticalAlign=middle;resizable=0;points=[];autosize=1;strokeColor=none;fillColor=none;fontSize=30;fontColor=#0000C4;" vertex="1" parent="1">
          <mxGeometry x="657" y="288" width="350" height="40" as="geometry" />
        </mxCell>
        <mxCell id="GpSwhTtLLLZpUkMEff_--9" value="{&amp;nbsp; &amp;nbsp; &amp;nbsp; &amp;nbsp; &amp;nbsp; &amp;nbsp; &amp;nbsp; &amp;nbsp; }&amp;nbsp;" style="text;html=1;align=center;verticalAlign=middle;resizable=0;points=[];autosize=1;strokeColor=none;fillColor=none;fontSize=30;fontColor=#0000C4;" vertex="1" parent="1">
          <mxGeometry x="745" y="282" width="180" height="40" as="geometry" />
        </mxCell>
        <mxCell id="GpSwhTtLLLZpUkMEff_--10" value="$$)$$" style="text;html=1;align=center;verticalAlign=middle;resizable=0;points=[];autosize=1;strokeColor=none;fillColor=none;fontSize=30;fontColor=#0000C4;" vertex="1" parent="1">
          <mxGeometry x="870" y="288" width="90" height="40" as="geometry" />
        </mxCell>
        <mxCell id="GpSwhTtLLLZpUkMEff_--11" value="$$\frac{p_1}{q_1}$$" style="text;html=1;align=center;verticalAlign=middle;resizable=0;points=[];autosize=1;strokeColor=none;fillColor=none;fontSize=30;fontColor=#0000C4;" vertex="1" parent="1">
          <mxGeometry x="530" y="360" width="280" height="40" as="geometry" />
        </mxCell>
        <mxCell id="GpSwhTtLLLZpUkMEff_--12" value="$$\frac{p_2}{q_2}$$" style="text;html=1;align=center;verticalAlign=middle;resizable=0;points=[];autosize=1;strokeColor=none;fillColor=none;fontSize=30;fontColor=#0000C4;" vertex="1" parent="1">
          <mxGeometry x="590" y="360" width="280" height="40" as="geometry" />
        </mxCell>
        <mxCell id="GpSwhTtLLLZpUkMEff_--15" value="CONST-&lt;br&gt;-RAINED&lt;br&gt;CHOICE&lt;br&gt;of&lt;br&gt;N-ITS" style="text;html=1;align=center;verticalAlign=middle;resizable=0;points=[];autosize=1;strokeColor=none;fillColor=none;fontSize=20;fontColor=#0000C4;" vertex="1" parent="1">
          <mxGeometry x="790" y="328" width="100" height="130" as="geometry" />
        </mxCell>
        <mxCell id="GpSwhTtLLLZpUkMEff_--16" value="&lt;font color=&quot;#ff0000&quot;&gt;$$b^{q_1}$$&lt;/font&gt;" style="text;html=1;align=center;verticalAlign=middle;resizable=0;points=[];autosize=1;strokeColor=none;fillColor=none;fontSize=20;fontColor=#0000C4;" vertex="1" parent="1">
          <mxGeometry x="610" y="440" width="130" height="30" as="geometry" />
        </mxCell>
        <mxCell id="GpSwhTtLLLZpUkMEff_--17" value="&lt;font color=&quot;#ff0000&quot;&gt;$$b^{q_2}$$&lt;/font&gt;" style="text;html=1;align=center;verticalAlign=middle;resizable=0;points=[];autosize=1;strokeColor=none;fillColor=none;fontSize=20;fontColor=#0000C4;" vertex="1" parent="1">
          <mxGeometry x="670" y="440" width="130" height="30" as="geometry" />
        </mxCell>
        <mxCell id="GpSwhTtLLLZpUkMEff_--18" value="" style="endArrow=classic;html=1;fontSize=20;fontColor=#FF0000;strokeColor=#FF0000;curved=1;" edge="1" parent="1">
          <mxGeometry width="50" height="50" relative="1" as="geometry">
            <mxPoint x="657" y="450" as="sourcePoint" />
            <mxPoint x="650" y="410" as="targetPoint" />
            <Array as="points">
              <mxPoint x="630" y="450" />
              <mxPoint x="627" y="420" />
            </Array>
          </mxGeometry>
        </mxCell>
        <mxCell id="GpSwhTtLLLZpUkMEff_--19" value="" style="endArrow=classic;html=1;fontSize=20;fontColor=#FF0000;strokeColor=#FF0000;curved=1;exitX=0.6;exitY=0.333;exitDx=0;exitDy=0;exitPerimeter=0;entryX=0.564;entryY=1.25;entryDx=0;entryDy=0;entryPerimeter=0;" edge="1" parent="1" source="GpSwhTtLLLZpUkMEff_--17" target="GpSwhTtLLLZpUkMEff_--12">
          <mxGeometry width="50" height="50" relative="1" as="geometry">
            <mxPoint x="810" y="430" as="sourcePoint" />
            <mxPoint x="860" y="460" as="targetPoint" />
            <Array as="points">
              <mxPoint x="790" y="440" />
            </Array>
          </mxGeometry>
        </mxCell>
        <mxCell id="GpSwhTtLLLZpUkMEff_--20" value="" style="endArrow=none;html=1;fontSize=20;fontColor=#FF0000;strokeColor=#0000C4;curved=1;strokeWidth=2;exitX=0.151;exitY=1.011;exitDx=0;exitDy=0;exitPerimeter=0;" edge="1" parent="1">
          <mxGeometry width="50" height="50" relative="1" as="geometry">
            <mxPoint x="799.9999999999999" y="459.43000000000006" as="sourcePoint" />
            <mxPoint x="884.9" y="458" as="targetPoint" />
          </mxGeometry>
        </mxCell>
        <mxCell id="GpSwhTtLLLZpUkMEff_--21" value="PROJECTION PARAMETER&lt;br&gt;ELECTION" style="text;html=1;align=center;verticalAlign=middle;resizable=0;points=[];autosize=1;strokeColor=none;fillColor=none;fontSize=20;fontColor=#FF0000;" vertex="1" parent="1">
          <mxGeometry x="657" y="150" width="270" height="50" as="geometry" />
        </mxCell>
        <mxCell id="GpSwhTtLLLZpUkMEff_--22" value="" style="shape=partialRectangle;whiteSpace=wrap;html=1;bottom=1;right=1;left=1;top=0;fillColor=none;routingCenterX=-0.5;fontSize=20;fontColor=#FF0000;strokeColor=#0000C4;rotation=-180;" vertex="1" parent="1">
          <mxGeometry x="660" y="200" width="230" height="20" as="geometry" />
        </mxCell>
        <mxCell id="GpSwhTtLLLZpUkMEff_--23" value="" style="shape=orEllipse;perimeter=ellipsePerimeter;whiteSpace=wrap;html=1;backgroundOutline=1;fontSize=20;fontColor=#FF0000;strokeColor=#FF0000;fillColor=none;" vertex="1" parent="1">
          <mxGeometry x="720" y="178" width="20" height="20" as="geometry" />
        </mxCell>
        <mxCell id="GpSwhTtLLLZpUkMEff_--26" value="&lt;font color=&quot;#ff0000&quot;&gt;LOBAREA&lt;br&gt;Rx&amp;nbsp;&lt;br&gt;&lt;/font&gt;" style="text;html=1;align=center;verticalAlign=middle;resizable=0;points=[];autosize=1;strokeColor=none;fillColor=none;fontSize=30;fontColor=#0000C4;" vertex="1" parent="1">
          <mxGeometry x="1040" y="148" width="160" height="80" as="geometry" />
        </mxCell>
        <mxCell id="GpSwhTtLLLZpUkMEff_--27" value="" style="endArrow=classic;html=1;fontSize=20;fontColor=#FF0000;strokeColor=#FF0000;strokeWidth=1;curved=1;" edge="1" parent="1">
          <mxGeometry width="50" height="50" relative="1" as="geometry">
            <mxPoint x="670" y="348" as="sourcePoint" />
            <mxPoint x="670" y="328" as="targetPoint" />
          </mxGeometry>
        </mxCell>
        <mxCell id="GpSwhTtLLLZpUkMEff_--28" value="" style="endArrow=classic;html=1;fontSize=20;fontColor=#FF0000;strokeColor=#FF0000;strokeWidth=1;curved=1;" edge="1" parent="1" target="GpSwhTtLLLZpUkMEff_--7">
          <mxGeometry width="50" height="50" relative="1" as="geometry">
            <mxPoint x="720" y="342" as="sourcePoint" />
            <mxPoint x="720" y="322" as="targetPoint" />
          </mxGeometry>
        </mxCell>
        <mxCell id="GpSwhTtLLLZpUkMEff_--29" value="$$(\mathbb{Q} ; \frac{\delta \mathbb{Q}}{\delta \mathbb{K}})$$" style="text;html=1;align=center;verticalAlign=middle;resizable=0;points=[];autosize=1;strokeColor=none;fillColor=none;fontSize=20;fontColor=#FF0000;" vertex="1" parent="1">
          <mxGeometry x="830" y="252" width="570" height="30" as="geometry" />
        </mxCell>
        <mxCell id="GpSwhTtLLLZpUkMEff_--30" value="@&quot;6-SIGMA&quot;" style="text;html=1;align=center;verticalAlign=middle;resizable=0;points=[];autosize=1;strokeColor=none;fillColor=none;fontSize=20;fontColor=#FF0000;" vertex="1" parent="1">
          <mxGeometry x="1055" y="310" width="130" height="30" as="geometry" />
        </mxCell>
        <mxCell id="GpSwhTtLLLZpUkMEff_--31" value="[BEST]" style="text;html=1;align=center;verticalAlign=middle;resizable=0;points=[];autosize=1;strokeColor=none;fillColor=none;fontSize=20;fontColor=#FF0000;" vertex="1" parent="1">
          <mxGeometry x="1130" y="330" width="80" height="30" as="geometry" />
        </mxCell>
        <mxCell id="GpSwhTtLLLZpUkMEff_--32" value="&lt;font color=&quot;#069968&quot; style=&quot;font-size: 40px;&quot;&gt;e mai PROBABIL&lt;br style=&quot;font-size: 40px;&quot;&gt;sa ai dreptate&amp;nbsp;&lt;br style=&quot;font-size: 40px;&quot;&gt;atunci cand ai&lt;br style=&quot;font-size: 40px;&quot;&gt;privilegial &lt;/font&gt;de a&amp;nbsp;&lt;br style=&quot;font-size: 40px;&quot;&gt;SCRIE Legea." style="text;html=1;align=center;verticalAlign=middle;resizable=0;points=[];autosize=1;strokeColor=none;fillColor=none;fontSize=40;fontColor=#FF0000;" vertex="1" parent="1">
          <mxGeometry x="1440" y="123" width="320" height="250" as="geometry" />
        </mxCell>
        <mxCell id="GpSwhTtLLLZpUkMEff_--33" value="" style="endArrow=none;html=1;fontSize=40;fontColor=#FF0000;strokeColor=#FF0000;strokeWidth=1;curved=1;" edge="1" parent="1">
          <mxGeometry width="50" height="50" relative="1" as="geometry">
            <mxPoint x="1680" y="362.44" as="sourcePoint" />
            <mxPoint x="1710" y="362.44" as="targetPoint" />
          </mxGeometry>
        </mxCell>
        <mxCell id="GpSwhTtLLLZpUkMEff_--34" value="" style="endArrow=none;html=1;fontSize=40;fontColor=#FF0000;strokeColor=#FF0000;strokeWidth=1;curved=1;" edge="1" parent="1">
          <mxGeometry width="50" height="50" relative="1" as="geometry">
            <mxPoint x="1680" y="367.0200000000001" as="sourcePoint" />
            <mxPoint x="1710" y="367.0200000000001" as="targetPoint" />
          </mxGeometry>
        </mxCell>
        <mxCell id="GpSwhTtLLLZpUkMEff_--35" value="" style="endArrow=none;html=1;fontSize=40;fontColor=#FF0000;strokeColor=#FF0000;strokeWidth=1;curved=1;" edge="1" parent="1">
          <mxGeometry width="50" height="50" relative="1" as="geometry">
            <mxPoint x="1680" y="372.44000000000017" as="sourcePoint" />
            <mxPoint x="1710" y="372.44000000000017" as="targetPoint" />
          </mxGeometry>
        </mxCell>
        <mxCell id="GpSwhTtLLLZpUkMEff_--36" value="&lt;font style=&quot;font-size: 30px&quot; color=&quot;#0000c4&quot;&gt;CONSERVAREA&lt;br&gt;ENTROPIEI de&amp;nbsp;&lt;br&gt;REPREZENTARE ....&lt;br&gt;&lt;/font&gt;" style="text;html=1;align=center;verticalAlign=middle;resizable=0;points=[];autosize=1;strokeColor=none;fillColor=none;fontSize=20;fontColor=#FF0000;" vertex="1" parent="1">
          <mxGeometry x="550" y="610" width="300" height="90" as="geometry" />
        </mxCell>
        <mxCell id="GpSwhTtLLLZpUkMEff_--39" value="$$\sum^{\ast}_p \sum^{\ast}_q \aleph_{p/q}([x];\ast)\times 1$$" style="text;html=1;align=center;verticalAlign=middle;resizable=0;points=[];autosize=1;strokeColor=none;fillColor=none;fontSize=30;fontColor=#0000C4;" vertex="1" parent="1">
          <mxGeometry x="300" y="750" width="830" height="40" as="geometry" />
        </mxCell>
        <mxCell id="GpSwhTtLLLZpUkMEff_--40" value="....a TENSORILOR&lt;br&gt;SCALARI&amp;nbsp;&amp;nbsp;" style="text;html=1;align=center;verticalAlign=middle;resizable=0;points=[];autosize=1;strokeColor=none;fillColor=none;fontSize=30;fontColor=#0000C4;" vertex="1" parent="1">
          <mxGeometry x="560" y="840" width="270" height="80" as="geometry" />
        </mxCell>
        <mxCell id="GpSwhTtLLLZpUkMEff_--41" value="$$\aleph_{p/q}$$" style="text;html=1;align=center;verticalAlign=middle;resizable=0;points=[];autosize=1;strokeColor=none;fillColor=none;fontSize=30;fontColor=#0000C4;" vertex="1" parent="1">
          <mxGeometry x="672" y="882" width="240" height="40" as="geometry" />
        </mxCell>
        <mxCell id="GpSwhTtLLLZpUkMEff_--42" value="PAS EVALUAT" style="text;html=1;align=center;verticalAlign=middle;resizable=0;points=[];autosize=1;strokeColor=none;fillColor=none;fontSize=30;fontColor=#0000C4;" vertex="1" parent="1">
          <mxGeometry x="1010" y="630" width="210" height="40" as="geometry" />
        </mxCell>
        <mxCell id="GpSwhTtLLLZpUkMEff_--43" value="CARDINALITATE&lt;br&gt;ENUMERABILA a&lt;br&gt;PROCESULUI&amp;nbsp;" style="text;html=1;align=center;verticalAlign=middle;resizable=0;points=[];autosize=1;strokeColor=none;fillColor=none;fontSize=30;fontColor=#0000C4;" vertex="1" parent="1">
          <mxGeometry x="990" y="820" width="250" height="110" as="geometry" />
        </mxCell>
        <mxCell id="GpSwhTtLLLZpUkMEff_--45" value="&lt;font style=&quot;font-size: 20px&quot;&gt;(INDEX-ORDINE)&lt;/font&gt;" style="text;html=1;align=center;verticalAlign=middle;resizable=0;points=[];autosize=1;strokeColor=none;fillColor=none;fontSize=30;fontColor=#0000C4;" vertex="1" parent="1">
          <mxGeometry x="1090" y="650" width="170" height="40" as="geometry" />
        </mxCell>
        <mxCell id="GpSwhTtLLLZpUkMEff_--46" value="&lt;font style=&quot;font-size: 90px&quot;&gt;p/q&lt;/font&gt;" style="text;html=1;align=center;verticalAlign=middle;resizable=0;points=[];autosize=1;strokeColor=none;fillColor=none;fontSize=20;fontColor=#0000C4;" vertex="1" parent="1">
          <mxGeometry x="1045" y="720" width="140" height="50" as="geometry" />
        </mxCell>
        <mxCell id="GpSwhTtLLLZpUkMEff_--47" value="$$\aleph_{p/q}([x];[\dots])$$" style="text;html=1;align=center;verticalAlign=middle;resizable=0;points=[];autosize=1;strokeColor=none;fillColor=none;fontSize=90;fontColor=#0000C4;" vertex="1" parent="1">
          <mxGeometry x="1210" y="590" width="1120" height="110" as="geometry" />
        </mxCell>
        <mxCell id="GpSwhTtLLLZpUkMEff_--50" value="$$\aleph_{\infty}(...;...)$$" style="text;html=1;align=center;verticalAlign=middle;resizable=0;points=[];autosize=1;strokeColor=none;fillColor=none;fontSize=50;fontColor=#0000C4;" vertex="1" parent="1">
          <mxGeometry x="1370" y="810" width="560" height="70" as="geometry" />
        </mxCell>
        <mxCell id="GpSwhTtLLLZpUkMEff_--52" value="TENSOR SCALAR in norma -" style="text;html=1;align=center;verticalAlign=middle;resizable=0;points=[];autosize=1;strokeColor=none;fillColor=none;fontSize=30;fontColor=#0000C4;" vertex="1" parent="1">
          <mxGeometry x="1550" y="930" width="410" height="40" as="geometry" />
        </mxCell>
        <mxCell id="GpSwhTtLLLZpUkMEff_--53" value="$$\infty$$" style="text;html=1;align=center;verticalAlign=middle;resizable=0;points=[];autosize=1;strokeColor=none;fillColor=none;fontSize=30;fontColor=#0000C4;" vertex="1" parent="1">
          <mxGeometry x="1900" y="930" width="150" height="40" as="geometry" />
        </mxCell>
        <mxCell id="GpSwhTtLLLZpUkMEff_--54" value="" style="endArrow=classic;html=1;fontSize=30;fontColor=#0000C4;strokeColor=#0000C4;strokeWidth=1;rounded=0;" edge="1" parent="1">
          <mxGeometry width="50" height="50" relative="1" as="geometry">
            <mxPoint x="1510" y="857" as="sourcePoint" />
            <mxPoint x="1550" y="947" as="targetPoint" />
            <Array as="points">
              <mxPoint x="1510" y="947" />
            </Array>
          </mxGeometry>
        </mxCell>
      </root>
    </mxGraphModel>
  </diagram>
</mxfile>
